<svg width="80" height="70" viewBox="0 0 80 70" fill="none" xmlns="http://www.w3.org/2000/svg">
<path d="M72.5 35C72.5 52.9493 57.9493 67.5 40 67.5C22.0507 67.5 7.5 52.9493 7.5 35C7.5 17.0507 22.0507 2.5 40 2.5C57.9493 2.5 72.5 17.0507 72.5 35Z" stroke="#F2B872" stroke-width="5"/>
<mask id="path-2-outside-1_5_164" maskUnits="userSpaceOnUse" x="-5" y="14" width="89" height="43" fill="black">
<rect fill="white" x="-5" y="14" width="89" height="43"/>
<path d="M20.3359 43.8252V48H1.85547V44.4375L10.5947 35.0674C11.473 34.0902 12.1657 33.2305 12.6729 32.4883C13.18 31.7337 13.5449 31.0596 13.7676 30.4658C14.0026 29.8597 14.1201 29.2845 14.1201 28.7402C14.1201 27.9238 13.984 27.2249 13.7119 26.6436C13.4398 26.0498 13.0378 25.5921 12.5059 25.2705C11.9863 24.9489 11.3431 24.7881 10.5762 24.7881C9.75977 24.7881 9.05469 24.986 8.46094 25.3818C7.87956 25.7777 7.43424 26.3281 7.125 27.0332C6.82812 27.7383 6.67969 28.5361 6.67969 29.4268H1.31738C1.31738 27.8187 1.70085 26.3467 2.46777 25.0107C3.2347 23.6624 4.31706 22.5924 5.71484 21.8008C7.11263 20.9967 8.77018 20.5947 10.6875 20.5947C12.5801 20.5947 14.1758 20.904 15.4746 21.5225C16.7858 22.1286 17.7754 23.0068 18.4434 24.1572C19.1237 25.2952 19.4639 26.6559 19.4639 28.2393C19.4639 29.1299 19.3216 30.002 19.0371 30.8555C18.7526 31.6966 18.3444 32.5378 17.8125 33.3789C17.293 34.2077 16.6621 35.0488 15.9199 35.9023C15.1777 36.7559 14.3551 37.6403 13.4521 38.5557L8.75781 43.8252H20.3359ZM42.6016 37.9062V42.0996H23.1377L22.8779 38.8525L34.1406 20.9844H38.3896L33.7881 28.6846L28.1846 37.9062H42.6016ZM39.54 20.9844V48H34.1963V20.9844H39.54ZM57.2598 20.9844L47.3516 50.3193H43.3809L53.2891 20.9844H57.2598ZM77.9482 20.9844V23.8604L67.502 48H61.8613L72.3076 25.1592H58.8555V20.9844H77.9482Z"/>
</mask>
<path d="M20.3359 43.8252V48H1.85547V44.4375L10.5947 35.0674C11.473 34.0902 12.1657 33.2305 12.6729 32.4883C13.18 31.7337 13.5449 31.0596 13.7676 30.4658C14.0026 29.8597 14.1201 29.2845 14.1201 28.7402C14.1201 27.9238 13.984 27.2249 13.7119 26.6436C13.4398 26.0498 13.0378 25.5921 12.5059 25.2705C11.9863 24.9489 11.3431 24.7881 10.5762 24.7881C9.75977 24.7881 9.05469 24.986 8.46094 25.3818C7.87956 25.7777 7.43424 26.3281 7.125 27.0332C6.82812 27.7383 6.67969 28.5361 6.67969 29.4268H1.31738C1.31738 27.8187 1.70085 26.3467 2.46777 25.0107C3.2347 23.6624 4.31706 22.5924 5.71484 21.8008C7.11263 20.9967 8.77018 20.5947 10.6875 20.5947C12.5801 20.5947 14.1758 20.904 15.4746 21.5225C16.7858 22.1286 17.7754 23.0068 18.4434 24.1572C19.1237 25.2952 19.4639 26.6559 19.4639 28.2393C19.4639 29.1299 19.3216 30.002 19.0371 30.8555C18.7526 31.6966 18.3444 32.5378 17.8125 33.3789C17.293 34.2077 16.6621 35.0488 15.9199 35.9023C15.1777 36.7559 14.3551 37.6403 13.4521 38.5557L8.75781 43.8252H20.3359ZM42.6016 37.9062V42.0996H23.1377L22.8779 38.8525L34.1406 20.9844H38.3896L33.7881 28.6846L28.1846 37.9062H42.6016ZM39.54 20.9844V48H34.1963V20.9844H39.54ZM57.2598 20.9844L47.3516 50.3193H43.3809L53.2891 20.9844H57.2598ZM77.9482 20.9844V23.8604L67.502 48H61.8613L72.3076 25.1592H58.8555V20.9844H77.9482Z" fill="#F2B872"/>
<path d="M20.3359 43.8252H26.3359V37.8252H20.3359V43.8252ZM20.3359 48V54H26.3359V48H20.3359ZM1.85547 48H-4.14453V54H1.85547V48ZM1.85547 44.4375L-2.53231 40.3451L-4.14453 42.0737V44.4375H1.85547ZM10.5947 35.0674L14.9825 39.1597L15.0203 39.1192L15.0573 39.078L10.5947 35.0674ZM12.6729 32.4883L17.6267 35.8734L17.6397 35.8544L17.6526 35.8353L12.6729 32.4883ZM13.7676 30.4658L8.17341 28.2967L8.16133 28.3278L8.1496 28.3591L13.7676 30.4658ZM13.7119 26.6436L8.25753 29.1435L8.26756 29.1654L8.27777 29.1872L13.7119 26.6436ZM12.5059 25.2705L9.34773 30.3721L9.37445 30.3886L9.40134 30.4049L12.5059 25.2705ZM8.46094 25.3818L5.13274 20.3895L5.10838 20.4058L5.08419 20.4222L8.46094 25.3818ZM7.125 27.0332L1.63027 24.6232L1.61243 24.6639L1.59519 24.7049L7.125 27.0332ZM6.67969 29.4268V35.4268H12.6797V29.4268H6.67969ZM1.31738 29.4268H-4.68262V35.4268H1.31738V29.4268ZM2.46777 25.0107L7.67129 27.9979L7.67722 27.9876L7.68311 27.9773L2.46777 25.0107ZM5.71484 21.8008L8.67175 27.0216L8.68918 27.0117L8.70654 27.0017L5.71484 21.8008ZM15.4746 21.5225L12.895 26.9396L12.9259 26.9543L12.957 26.9687L15.4746 21.5225ZM18.4434 24.1572L13.2546 27.17L13.2738 27.2031L13.2935 27.236L18.4434 24.1572ZM19.0371 30.8555L24.7208 32.7779L24.725 32.7654L24.7292 32.7528L19.0371 30.8555ZM17.8125 33.3789L12.7413 30.1721L12.735 30.1821L12.7288 30.1921L17.8125 33.3789ZM13.4521 38.5557L9.18075 34.342L9.07356 34.4506L8.97205 34.5646L13.4521 38.5557ZM8.75781 43.8252L4.27771 39.8341L-4.62279 49.8252H8.75781V43.8252ZM14.3359 43.8252V48H26.3359V43.8252H14.3359ZM20.3359 42H1.85547V54H20.3359V42ZM7.85547 48V44.4375H-4.14453V48H7.85547ZM6.24324 48.5299L14.9825 39.1597L6.20695 30.975L-2.53231 40.3451L6.24324 48.5299ZM15.0573 39.078C16.04 37.9847 16.9187 36.9095 17.6267 35.8734L7.71898 29.1031C7.41263 29.5515 6.90601 30.1957 6.13215 31.0567L15.0573 39.078ZM17.6526 35.8353C18.3179 34.8454 18.9454 33.7464 19.3856 32.5726L8.1496 28.3591C8.15222 28.3521 8.12794 28.4172 8.05031 28.5606C7.9738 28.702 7.85896 28.8946 7.69314 29.1413L17.6526 35.8353ZM19.3617 32.635C19.8141 31.4685 20.1201 30.1554 20.1201 28.7402H8.12012C8.12012 28.4137 8.19114 28.2509 8.17341 28.2967L19.3617 32.635ZM20.1201 28.7402C20.1201 27.2758 19.8778 25.6632 19.1461 24.0999L8.27777 29.1872C8.09031 28.7867 8.12012 28.5718 8.12012 28.7402H20.1201ZM19.1663 24.1436C18.4197 22.5147 17.226 21.113 15.6104 20.1361L9.40134 30.4049C9.153 30.2547 8.91062 30.0562 8.69839 29.8146C8.48791 29.575 8.34687 29.3384 8.25753 29.1435L19.1663 24.1436ZM15.664 20.1689C13.9811 19.1271 12.1762 18.7881 10.5762 18.7881V30.7881C10.51 30.7881 9.99153 30.7706 9.34773 30.3721L15.664 20.1689ZM10.5762 18.7881C8.75095 18.7881 6.8488 19.2455 5.13274 20.3895L11.7891 30.3741C11.5481 30.5348 11.2945 30.6465 11.0566 30.7133C10.8248 30.7783 10.6541 30.7881 10.5762 30.7881V18.7881ZM5.08419 20.4222C3.48409 21.5117 2.3477 22.9875 1.63027 24.6232L12.6197 29.4432C12.5783 29.5377 12.4971 29.6904 12.3556 29.8652C12.2117 30.0431 12.0353 30.2069 11.8377 30.3414L5.08419 20.4222ZM1.59519 24.7049C0.941315 26.2578 0.679688 27.8662 0.679688 29.4268H12.6797C12.6797 29.3144 12.6891 29.2618 12.6898 29.2578C12.6902 29.2557 12.6828 29.295 12.6548 29.3615L1.59519 24.7049ZM6.67969 23.4268H1.31738V35.4268H6.67969V23.4268ZM7.31738 29.4268C7.31738 28.819 7.4496 28.3841 7.67129 27.9979L-2.73575 22.0235C-4.0479 24.3092 -4.68262 26.8184 -4.68262 29.4268H7.31738ZM7.68311 27.9773C7.89488 27.605 8.1813 27.2994 8.67175 27.0216L2.75793 16.58C0.452815 17.8855 -1.42548 19.7199 -2.74756 22.0442L7.68311 27.9773ZM8.70654 27.0017C9.03584 26.8123 9.621 26.5947 10.6875 26.5947V14.5947C7.91936 14.5947 5.18942 15.1812 2.72315 16.5998L8.70654 27.0017ZM10.6875 26.5947C11.9572 26.5947 12.6144 26.806 12.895 26.9396L18.0542 16.1053C15.7372 15.0019 13.203 14.5947 10.6875 14.5947V26.5947ZM12.957 26.9687C13.1285 27.048 13.1998 27.1076 13.2175 27.1233C13.2317 27.1359 13.2398 27.1445 13.2546 27.17L23.6321 21.1444C22.2913 18.8353 20.3216 17.153 17.9922 16.0762L12.957 26.9687ZM13.2935 27.236C13.318 27.2771 13.4639 27.5284 13.4639 28.2393H25.4639C25.4639 25.7834 24.9293 23.3134 23.5933 21.0785L13.2935 27.236ZM13.4639 28.2393C13.4639 28.4784 13.4277 28.7101 13.345 28.9581L24.7292 32.7528C25.2155 31.2939 25.4639 29.7814 25.4639 28.2393H13.4639ZM13.3534 28.933C13.2385 29.2729 13.049 29.6857 12.7413 30.1721L22.8837 36.5857C23.6398 35.3899 24.2667 34.1204 24.7208 32.7779L13.3534 28.933ZM12.7288 30.1921C12.3981 30.7196 11.9608 31.3115 11.3923 31.9653L20.4476 39.8394C21.3634 38.7862 22.1879 37.6957 22.8962 36.5657L12.7288 30.1921ZM11.3923 31.9653C10.7428 32.7122 10.0071 33.5043 9.18075 34.342L17.7236 42.7693C18.7032 41.7763 19.6126 40.7996 20.4476 39.8394L11.3923 31.9653ZM8.97205 34.5646L4.27771 39.8341L13.2379 47.8163L17.9322 42.5467L8.97205 34.5646ZM8.75781 49.8252H20.3359V37.8252H8.75781V49.8252ZM42.6016 37.9062H48.6016V31.9062H42.6016V37.9062ZM42.6016 42.0996V48.0996H48.6016V42.0996H42.6016ZM23.1377 42.0996L17.1568 42.5781L17.5985 48.0996H23.1377V42.0996ZM22.8779 38.8525L17.8021 35.6531L16.7379 37.3415L16.897 39.331L22.8779 38.8525ZM34.1406 20.9844V14.9844H30.8301L29.0648 17.785L34.1406 20.9844ZM38.3896 20.9844L43.5401 24.0622L48.9649 14.9844H38.3896V20.9844ZM33.7881 28.6846L38.9157 31.8003L38.9272 31.7814L38.9385 31.7624L33.7881 28.6846ZM28.1846 37.9062L23.057 34.7905L17.5178 43.9062H28.1846V37.9062ZM39.54 20.9844H45.54V14.9844H39.54V20.9844ZM39.54 48V54H45.54V48H39.54ZM34.1963 48H28.1963V54H34.1963V48ZM34.1963 20.9844V14.9844H28.1963V20.9844H34.1963ZM36.6016 37.9062V42.0996H48.6016V37.9062H36.6016ZM42.6016 36.0996H23.1377V48.0996H42.6016V36.0996ZM29.1186 41.6211L28.8588 38.3741L16.897 39.331L17.1568 42.5781L29.1186 41.6211ZM27.9537 42.0519L39.2164 24.1838L29.0648 17.785L17.8021 35.6531L27.9537 42.0519ZM34.1406 26.9844H38.3896V14.9844H34.1406V26.9844ZM33.2392 17.9065L28.6377 25.6067L38.9385 31.7624L43.5401 24.0622L33.2392 17.9065ZM28.6605 25.5688L23.057 34.7905L33.3121 41.022L38.9157 31.8003L28.6605 25.5688ZM28.1846 43.9062H42.6016V31.9062H28.1846V43.9062ZM33.54 20.9844V48H45.54V20.9844H33.54ZM39.54 42H34.1963V54H39.54V42ZM40.1963 48V20.9844H28.1963V48H40.1963ZM34.1963 26.9844H39.54V14.9844H34.1963V26.9844ZM57.2598 20.9844L62.9443 22.9044L65.6193 14.9844H57.2598V20.9844ZM47.3516 50.3193V56.3193H51.658L53.0361 52.2393L47.3516 50.3193ZM43.3809 50.3193L37.6964 48.3993L35.0213 56.3193H43.3809V50.3193ZM53.2891 20.9844V14.9844H48.9826L47.6046 19.0644L53.2891 20.9844ZM51.5753 19.0644L41.6671 48.3993L53.0361 52.2393L62.9443 22.9044L51.5753 19.0644ZM47.3516 44.3193H43.3809V56.3193H47.3516V44.3193ZM49.0654 52.2393L58.9736 22.9044L47.6046 19.0644L37.6964 48.3993L49.0654 52.2393ZM53.2891 26.9844H57.2598V14.9844H53.2891V26.9844ZM77.9482 20.9844H83.9482V14.9844H77.9482V20.9844ZM77.9482 23.8604L83.4548 26.2433L83.9482 25.1029V23.8604H77.9482ZM67.502 48V54H71.4432L73.0085 50.3829L67.502 48ZM61.8613 48L56.4049 45.5045L52.5195 54H61.8613V48ZM72.3076 25.1592L77.764 27.6547L81.6495 19.1592H72.3076V25.1592ZM58.8555 25.1592H52.8555V31.1592H58.8555V25.1592ZM58.8555 20.9844V14.9844H52.8555V20.9844H58.8555ZM71.9482 20.9844V23.8604H83.9482V20.9844H71.9482ZM72.4417 21.4774L61.9954 45.6171L73.0085 50.3829L83.4548 26.2433L72.4417 21.4774ZM67.502 42H61.8613V54H67.502V42ZM67.3177 50.4955L77.764 27.6547L66.8512 22.6637L56.4049 45.5045L67.3177 50.4955ZM72.3076 19.1592H58.8555V31.1592H72.3076V19.1592ZM64.8555 25.1592V20.9844H52.8555V25.1592H64.8555ZM58.8555 26.9844H77.9482V14.9844H58.8555V26.9844Z" fill="#262626" mask="url(#path-2-outside-1_5_164)"/>
</svg>
