<svg width="52" height="72" viewBox="0 0 52 72" fill="none" xmlns="http://www.w3.org/2000/svg">
<path d="M48.66 57.44V59H34.2V57.44L37.5 57.08C38.14 57 38.52 56.84 38.64 56.6C38.76 56.32 38.82 55.5 38.82 54.14V21.62L26.34 54.2H22.26L9.72 21.62V54.14C9.72 55.5 9.78 56.32 9.9 56.6C10.02 56.84 10.4 57 11.04 57.08L14.34 57.44V59H2.88V57.44L6.18 57.08C6.82 57 7.2 56.84 7.32 56.6C7.44 56.32 7.5 55.5 7.5 54.14V23.06C7.5 21.7 7.44 20.9 7.32 20.66C7.2 20.38 6.82 20.2 6.18 20.12L2.88 19.82V18.2H13.86L25.92 49.7L37.98 18.2H48.66V19.82L45.36 20.12C44.72 20.2 44.34 20.38 44.22 20.66C44.1 20.9 44.04 21.7 44.04 23.06V54.14C44.04 55.5 44.1 56.32 44.22 56.6C44.34 56.84 44.72 57 45.36 57.08L48.66 57.44Z" fill="black"/>
<path d="M11.88 19.82V18.2H28.92C32.88 18.2 35.9 19.2 37.98 21.2C40.06 23.16 41.1 25.78 41.1 29.06V30.8C41.1 34.08 40.06 36.72 37.98 38.72C35.9 40.72 32.88 41.72 28.92 41.72H21.72V54.14C21.72 55.54 21.78 56.38 21.9 56.66C22.02 56.9 22.4 57.04 23.04 57.08L27.54 57.44V59H11.88V57.44L15.18 57.08C15.82 57 16.2 56.84 16.32 56.6C16.44 56.36 16.5 55.54 16.5 54.14V23.06C16.5 21.66 16.44 20.84 16.32 20.6C16.2 20.36 15.82 20.2 15.18 20.12L11.88 19.82ZM28.92 20.12H21.72V39.8H28.92C33.36 39.8 35.58 37.08 35.58 31.64V28.22C35.58 22.82 33.36 20.12 28.92 20.12Z" fill="#F2B872"/>
<g opacity="0.9">
<rect y="34" width="52" height="13" fill="#8C8C8C"/>
<path d="M6.80469 43.0625V44H2.35156V43.0625H3.28906V37.6719H2.35156V36.7344H8.67969V39.0781H7.625V38.6094C7.625 38.5137 7.61621 38.415 7.59863 38.3135C7.58301 38.2119 7.55762 38.1113 7.52246 38.0117C7.48926 37.9121 7.44043 37.8311 7.37598 37.7686C7.31152 37.7041 7.23828 37.6719 7.15625 37.6719H5.16406V40.25H6.21875V39.1953H7.15625V42.2422H6.21875V41.1875H5.16406V43.0625H6.80469ZM9.38281 36.7344H13.1328V37.6719H12.1953V43.0625H13.1328V44H9.38281V43.0625H10.3203V37.6719H9.38281V36.7344ZM13.7773 36.7344H20.5742V39.0781H19.5195V38.6094C19.5195 38.5137 19.5107 38.415 19.4932 38.3135C19.4775 38.2119 19.4521 38.1113 19.417 38.0117C19.3838 37.9121 19.335 37.8311 19.2705 37.7686C19.2061 37.7041 19.1328 37.6719 19.0508 37.6719H18.1133V43.0625H19.0508V44H15.3008V43.0625H16.2383V37.6719H15.3008C15.2188 37.6719 15.1455 37.7041 15.0811 37.7686C15.0166 37.8311 14.9668 37.9121 14.9316 38.0117C14.8984 38.1113 14.873 38.2119 14.8555 38.3135C14.8398 38.415 14.832 38.5137 14.832 38.6094V39.0781H13.7773V36.7344ZM21.2188 36.7344H23.8262L26.8438 40.2852V37.6719H25.9062V36.7344H28.9531V37.6719H28.0156V44H27.3125L23.3281 39.3125V43.0625H24.2656V44H21.2188V43.0625H22.1562V37.6719H21.2188V36.7344ZM29.5977 36.7344H35.9258V39.0781H34.8711V38.6094C34.8711 38.5137 34.8623 38.415 34.8447 38.3135C34.8291 38.2119 34.8037 38.1113 34.7686 38.0117C34.7354 37.9121 34.6865 37.8311 34.6221 37.7686C34.5576 37.7041 34.4844 37.6719 34.4023 37.6719H32.4102V40.25H33.4648V39.1953H34.4023V42.2422H33.4648V41.1875H32.4102V43.0625H34.5195C34.6016 43.0625 34.6748 43.0312 34.7393 42.9688C34.8037 42.9043 34.8525 42.8223 34.8857 42.7227C34.9209 42.623 34.9463 42.5225 34.9619 42.4209C34.9795 42.3193 34.9883 42.2207 34.9883 42.125V41.6562H36.043V44H29.5977V43.0625H30.5352V37.6719H29.5977V36.7344ZM38.7383 38.375C38.7383 38.5605 38.7812 38.7275 38.8672 38.876C38.9531 39.0225 39.0684 39.1455 39.2129 39.2451C39.3574 39.3447 39.5234 39.4365 39.7109 39.5205C39.8984 39.6045 40.0957 39.6846 40.3027 39.7607C40.5098 39.835 40.7168 39.9131 40.9238 39.9951C41.1309 40.0752 41.3281 40.1719 41.5156 40.2852C41.7031 40.3965 41.8691 40.5225 42.0137 40.6631C42.1582 40.8018 42.2734 40.9766 42.3594 41.1875C42.4453 41.3965 42.4883 41.6309 42.4883 41.8906C42.4883 42.209 42.418 42.5059 42.2773 42.7812C42.1367 43.0566 41.9434 43.293 41.6973 43.4902C41.4531 43.6855 41.1562 43.8389 40.8066 43.9502C40.457 44.0615 40.0801 44.1172 39.6758 44.1172C39.5195 44.1172 39.3545 44.1064 39.1807 44.085C39.0088 44.0654 38.8262 44.0312 38.6328 43.9824C38.4414 43.9336 38.2568 43.874 38.0791 43.8037C37.9014 43.7334 37.7305 43.6445 37.5664 43.5371C37.4043 43.4277 37.2627 43.3066 37.1416 43.1738C37.0205 43.041 36.9238 42.8848 36.8516 42.7051C36.7812 42.5234 36.7461 42.3301 36.7461 42.125C36.7461 41.8652 36.8369 41.6445 37.0186 41.4629C37.2021 41.2793 37.4238 41.1875 37.6836 41.1875C37.9434 41.1875 38.1641 41.2793 38.3457 41.4629C38.5293 41.6445 38.6211 41.8652 38.6211 42.125C38.6211 42.293 38.5801 42.4482 38.498 42.5908C38.418 42.7314 38.3086 42.8438 38.1699 42.9277C38.4629 43.0957 38.8477 43.1797 39.3242 43.1797C39.748 43.1797 40.0684 43.1143 40.2852 42.9834C40.5039 42.8525 40.6133 42.6445 40.6133 42.3594C40.6133 42.1738 40.5703 42.0078 40.4844 41.8613C40.3984 41.7129 40.2832 41.5889 40.1387 41.4893C39.9941 41.3896 39.8281 41.2979 39.6406 41.2139C39.4531 41.1299 39.2559 41.0508 39.0488 40.9766C38.8418 40.9004 38.6348 40.8223 38.4277 40.7422C38.2207 40.6602 38.0234 40.5635 37.8359 40.4521C37.6484 40.3389 37.4824 40.2129 37.3379 40.0742C37.1934 39.9336 37.0781 39.7588 36.9922 39.5498C36.9062 39.3389 36.8633 39.1035 36.8633 38.8438C36.8633 38.5234 36.9268 38.2266 37.0537 37.9531C37.1826 37.6777 37.3623 37.4424 37.5928 37.2471C37.8252 37.0498 38.1104 36.8955 38.4482 36.7842C38.7861 36.6729 39.1562 36.6172 39.5586 36.6172C39.7148 36.6172 39.877 36.6279 40.0449 36.6494C40.2148 36.6689 40.3916 36.7031 40.5752 36.752C40.7607 36.8008 40.9385 36.8604 41.1084 36.9307C41.2783 37.001 41.4404 37.0908 41.5947 37.2002C41.751 37.3076 41.8857 37.4277 41.999 37.5605C42.1123 37.6934 42.2021 37.8496 42.2686 38.0293C42.3369 38.209 42.3711 38.4023 42.3711 38.6094C42.3711 38.8691 42.2793 39.0908 42.0957 39.2744C41.9141 39.4561 41.6934 39.5469 41.4336 39.5469C41.1738 39.5469 40.9521 39.4561 40.7686 39.2744C40.5869 39.0908 40.4961 38.8691 40.4961 38.6094C40.4961 38.4355 40.54 38.2764 40.6279 38.1318C40.7158 37.9854 40.832 37.8711 40.9766 37.7891C40.7168 37.6328 40.3613 37.5547 39.9102 37.5547C39.498 37.5547 39.1992 37.6191 39.0137 37.748C38.8301 37.875 38.7383 38.084 38.7383 38.375ZM45.2422 38.375C45.2422 38.5605 45.2852 38.7275 45.3711 38.876C45.457 39.0225 45.5723 39.1455 45.7168 39.2451C45.8613 39.3447 46.0273 39.4365 46.2148 39.5205C46.4023 39.6045 46.5996 39.6846 46.8066 39.7607C47.0137 39.835 47.2207 39.9131 47.4277 39.9951C47.6348 40.0752 47.832 40.1719 48.0195 40.2852C48.207 40.3965 48.373 40.5225 48.5176 40.6631C48.6621 40.8018 48.7773 40.9766 48.8633 41.1875C48.9492 41.3965 48.9922 41.6309 48.9922 41.8906C48.9922 42.209 48.9219 42.5059 48.7812 42.7812C48.6406 43.0566 48.4473 43.293 48.2012 43.4902C47.957 43.6855 47.6602 43.8389 47.3105 43.9502C46.9609 44.0615 46.584 44.1172 46.1797 44.1172C46.0234 44.1172 45.8584 44.1064 45.6846 44.085C45.5127 44.0654 45.3301 44.0312 45.1367 43.9824C44.9453 43.9336 44.7607 43.874 44.583 43.8037C44.4053 43.7334 44.2344 43.6445 44.0703 43.5371C43.9082 43.4277 43.7666 43.3066 43.6455 43.1738C43.5244 43.041 43.4277 42.8848 43.3555 42.7051C43.2852 42.5234 43.25 42.3301 43.25 42.125C43.25 41.8652 43.3408 41.6445 43.5225 41.4629C43.7061 41.2793 43.9277 41.1875 44.1875 41.1875C44.4473 41.1875 44.668 41.2793 44.8496 41.4629C45.0332 41.6445 45.125 41.8652 45.125 42.125C45.125 42.293 45.084 42.4482 45.002 42.5908C44.9219 42.7314 44.8125 42.8438 44.6738 42.9277C44.9668 43.0957 45.3516 43.1797 45.8281 43.1797C46.252 43.1797 46.5723 43.1143 46.7891 42.9834C47.0078 42.8525 47.1172 42.6445 47.1172 42.3594C47.1172 42.1738 47.0742 42.0078 46.9883 41.8613C46.9023 41.7129 46.7871 41.5889 46.6426 41.4893C46.498 41.3896 46.332 41.2979 46.1445 41.2139C45.957 41.1299 45.7598 41.0508 45.5527 40.9766C45.3457 40.9004 45.1387 40.8223 44.9316 40.7422C44.7246 40.6602 44.5273 40.5635 44.3398 40.4521C44.1523 40.3389 43.9863 40.2129 43.8418 40.0742C43.6973 39.9336 43.582 39.7588 43.4961 39.5498C43.4102 39.3389 43.3672 39.1035 43.3672 38.8438C43.3672 38.5234 43.4307 38.2266 43.5576 37.9531C43.6865 37.6777 43.8662 37.4424 44.0967 37.2471C44.3291 37.0498 44.6143 36.8955 44.9521 36.7842C45.29 36.6729 45.6602 36.6172 46.0625 36.6172C46.2188 36.6172 46.3809 36.6279 46.5488 36.6494C46.7188 36.6689 46.8955 36.7031 47.0791 36.752C47.2646 36.8008 47.4424 36.8604 47.6123 36.9307C47.7822 37.001 47.9443 37.0908 48.0986 37.2002C48.2549 37.3076 48.3896 37.4277 48.5029 37.5605C48.6162 37.6934 48.7061 37.8496 48.7725 38.0293C48.8408 38.209 48.875 38.4023 48.875 38.6094C48.875 38.8691 48.7832 39.0908 48.5996 39.2744C48.418 39.4561 48.1973 39.5469 47.9375 39.5469C47.6777 39.5469 47.4561 39.4561 47.2725 39.2744C47.0908 39.0908 47 38.8691 47 38.6094C47 38.4355 47.0439 38.2764 47.1318 38.1318C47.2197 37.9854 47.3359 37.8711 47.4805 37.7891C47.2207 37.6328 46.8652 37.5547 46.4141 37.5547C46.002 37.5547 45.7031 37.6191 45.5176 37.748C45.334 37.875 45.2422 38.084 45.2422 38.375Z" fill="white"/>
</g>
</svg>
