<svg width="72" height="72" viewBox="0 0 72 72" fill="none" xmlns="http://www.w3.org/2000/svg">
<path d="M69.1172 35.8293C69.1172 53.7453 54.3761 68.3293 36.1172 68.3293C17.8582 68.3293 3.11716 53.7453 3.11716 35.8293C3.11716 17.9134 17.8582 3.32935 36.1172 3.32935C54.3761 3.32935 69.1172 17.9134 69.1172 35.8293Z" stroke="#F2B872" stroke-width="5"/>
<path d="M11.862 17.6533L7.67064 16.1137L8.54883 20.4917L14.7435 51.374L14.9327 52.317L15.705 52.89L34.7315 67.0077L36.2042 68.1004L37.6888 67.0239L57.1579 52.9062L57.9817 52.3089L58.1541 51.306L63.4638 20.4236L64.2014 16.134L60.1245 17.6583L36.2136 26.5985L11.862 17.6533Z" fill="#F2B872" stroke="#262626" stroke-width="5"/>
</svg>
